<svg width="30" height="25" viewBox="0 0 30 25" fill="none" xmlns="http://www.w3.org/2000/svg"><path d="M10.465 5.244c6.319-.028 9.097-.02 13.75 0 .133 0 .266.031.385.09.567.284.656 1.068.19 1.496-1.782 1.633-4.996 5.039-2.116 6.086 2.145.78 1.484 3.487-.797 3.487H12.81a6.286 6.286 0 0 1-6.16-5.033L5.46 5.515a4.694 4.694 0 0 0-4.6-3.758H0" stroke="#243C3A" stroke-width="1.571"/><path d="M12.655 21.39a2.663 2.663 0 1 1-5.327 0 2.663 2.663 0 0 1 5.327 0zm-4.262 0a1.598 1.598 0 1 0 3.196 0 1.598 1.598 0 0 0-3.196 0zM23.975 21.39a2.663 2.663 0 1 1-5.327 0 2.663 2.663 0 0 1 5.327 0zm-4.263 0a1.598 1.598 0 1 0 3.196 0 1.598 1.598 0 0 0-3.196 0z" fill="#243C3A"/></svg>